# xmcd CD database file
#
# Track frame offsets:
#	150
#	9111
#	27670
#	43725
#	58679
#	75488
#	91784
#	109918
#	125858
#	145169
#
# Disc length: 2221 seconds
#
# Revision: 0
# Processed by: cddbd v1.5.1PL0 Copyright (c) Steve Scherf et al.
# Submitted via: CDex 1.51
#
DISCID=7f08ab0a
DTITLE=whiteberry - (初)
DYEAR=2000
DGENRE=JPop
TTITLE0=P・O・T(Power Of Teens)
TTITLE1=通学路
TTITLE2=太陽をぶっとばせ!!
TTITLE3=願い星
TTITLE4=夏祭り
TTITLE5=愛落人形
TTITLE6=まるごとテスト
TTITLE7=Whiteberryの小さな大冒険
TTITLE8=Dearest
TTITLE9=YUKI
EXTD=YEAR: 2000
EXTT0=
EXTT1=
EXTT2=
EXTT3=
EXTT4=
EXTT5=
EXTT6=
EXTT7=
EXTT8=
EXTT9=
PLAYORDER=
